<svg xmlns="http://www.w3.org/2000/svg" width="1280" height="760" viewBox="0 0 1280 760" fill="none">
  <rect width="1280" height="760" rx="32" fill="#0F172A"/>
  <rect x="28" y="28" width="1224" height="704" rx="24" fill="#111827" stroke="#334155"/>
  <rect x="64" y="64" width="248" height="632" rx="18" fill="#0B1220" stroke="#253248"/>
  <rect x="100" y="112" width="172" height="12" rx="6" fill="#334155"/>
  <rect x="100" y="148" width="142" height="12" rx="6" fill="#1E293B"/>
  <rect x="100" y="184" width="162" height="12" rx="6" fill="#1E293B"/>
  <rect x="100" y="242" width="172" height="44" rx="14" fill="#132035" stroke="#2563EB"/>
  <text x="126" y="270" fill="#E2E8F0" font-family="Arial, sans-serif" font-size="18" font-weight="700">THRUNT workspace</text>
  <rect x="100" y="312" width="172" height="12" rx="6" fill="#1E293B"/>
  <rect x="100" y="344" width="130" height="12" rx="6" fill="#1E293B"/>
  <rect x="100" y="376" width="118" height="12" rx="6" fill="#1E293B"/>
  <rect x="344" y="64" width="872" height="632" rx="18" fill="#0B1220" stroke="#253248"/>
  <text x="392" y="118" fill="#F8FAFC" font-family="Arial, sans-serif" font-size="34" font-weight="700">THRUNT God for Obsidian</text>
  <text x="392" y="154" fill="#94A3B8" font-family="Arial, sans-serif" font-size="18">Vault-native workspace companion for mission, hypothesis, state, and findings flow.</text>
  <rect x="392" y="196" width="166" height="38" rx="19" fill="#0F3A24" stroke="#22C55E"/>
  <text x="424" y="221" fill="#BBF7D0" font-family="Arial, sans-serif" font-size="18" font-weight="700">Healthy</text>
  <text x="584" y="221" fill="#94A3B8" font-family="Arial, sans-serif" font-size="18">.planning</text>
  <rect x="392" y="260" width="776" height="156" rx="18" fill="#111827" stroke="#334155"/>
  <text x="428" y="304" fill="#F8FAFC" font-family="Arial, sans-serif" font-size="24" font-weight="700">Current hunt snapshot</text>
  <text x="428" y="344" fill="#94A3B8" font-family="Arial, sans-serif" font-size="18">Phase</text>
  <text x="562" y="344" fill="#E2E8F0" font-family="Arial, sans-serif" font-size="18">Signal triage</text>
  <text x="428" y="378" fill="#94A3B8" font-family="Arial, sans-serif" font-size="18">Blockers</text>
  <text x="562" y="378" fill="#E2E8F0" font-family="Arial, sans-serif" font-size="18">0</text>
  <text x="428" y="412" fill="#94A3B8" font-family="Arial, sans-serif" font-size="18">Hypotheses</text>
  <text x="562" y="412" fill="#86EFAC" font-family="Arial, sans-serif" font-size="18">2 validated</text>
  <text x="666" y="412" fill="#64748B" font-family="Arial, sans-serif" font-size="18">/</text>
  <text x="684" y="412" fill="#FCD34D" font-family="Arial, sans-serif" font-size="18">1 pending</text>
  <text x="782" y="412" fill="#64748B" font-family="Arial, sans-serif" font-size="18">/</text>
  <text x="800" y="412" fill="#FCA5A5" font-family="Arial, sans-serif" font-size="18">0 rejected</text>
  <rect x="392" y="448" width="372" height="212" rx="18" fill="#111827" stroke="#334155"/>
  <text x="428" y="490" fill="#F8FAFC" font-family="Arial, sans-serif" font-size="24" font-weight="700">Core artifacts</text>
  <rect x="428" y="520" width="300" height="40" rx="12" fill="#0F172A" stroke="#334155"/>
  <text x="448" y="545" fill="#E2E8F0" font-family="Arial, sans-serif" font-size="18">Mission</text>
  <rect x="638" y="528" width="74" height="24" rx="12" fill="#2563EB"/>
  <text x="662" y="545" fill="#EFF6FF" font-family="Arial, sans-serif" font-size="14" font-weight="700">Open</text>
  <rect x="428" y="572" width="300" height="40" rx="12" fill="#0F172A" stroke="#334155"/>
  <text x="448" y="597" fill="#E2E8F0" font-family="Arial, sans-serif" font-size="18">Hypotheses</text>
  <rect x="638" y="580" width="74" height="24" rx="12" fill="#2563EB"/>
  <text x="662" y="597" fill="#EFF6FF" font-family="Arial, sans-serif" font-size="14" font-weight="700">Open</text>
  <rect x="800" y="448" width="368" height="212" rx="18" fill="#111827" stroke="#334155"/>
  <text x="836" y="490" fill="#F8FAFC" font-family="Arial, sans-serif" font-size="24" font-weight="700">Quick actions</text>
  <rect x="836" y="526" width="144" height="42" rx="21" fill="#1D4ED8"/>
  <text x="872" y="552" fill="#EFF6FF" font-family="Arial, sans-serif" font-size="16" font-weight="700">Open mission</text>
  <rect x="996" y="526" width="112" height="42" rx="21" fill="#0F172A" stroke="#475569"/>
  <text x="1030" y="552" fill="#E2E8F0" font-family="Arial, sans-serif" font-size="16" font-weight="700">Refresh</text>
  <text x="836" y="608" fill="#94A3B8" font-family="Arial, sans-serif" font-size="18">Focused on vault-native navigation, scaffold creation, and hunt-state visibility.</text>
</svg>
